<svg xmlns="http://www.w3.org/2000/svg" version="1.1" xmlns:xlink="http://www.w3.org/1999/xlink" xmlns:svgjs="http://svgjs.com/svgjs" width="512" height="512" x="0" y="0" viewBox="0 0 512 512" style="enable-background:new 0 0 512 512" xml:space="preserve" class=""><g><path d="M464.158 488a7.986 7.986 0 0 1-3.495-.805l-65.716-31.937c-21.33 9.976-44.153 15.031-67.897 15.031-45.416 0-88.901-19.368-119.305-53.138a7.999 7.999 0 0 1 .593-11.298 7.999 7.999 0 0 1 11.298.593c27.375 30.404 66.526 47.843 107.415 47.843 22.582 0 44.231-5.074 64.347-15.082a8.003 8.003 0 0 1 7.061-.033l50.889 24.731-18.275-47.177a8.002 8.002 0 0 1 1.612-8.349c25.063-26.848 38.867-61.861 38.867-98.591 0-50.103-25.386-95.916-67.907-122.55a8 8 0 0 1-2.532-11.026 7.998 7.998 0 0 1 11.026-2.533c47.221 29.579 75.413 80.461 75.413 136.11 0 39.108-14.088 76.464-39.778 105.759l23.849 61.562a7.999 7.999 0 0 1-7.465 10.89z" fill="#ffffff" data-original="#000000" class=""></path><path d="M51.624 442.059a7.998 7.998 0 0 1-7.462-10.89l30.149-77.811C42.119 317.09 24.45 270.645 24.45 222c0-109.178 88.822-198 198-198s198 88.822 198 198-88.822 198-198 198c-29.624 0-58.065-6.373-84.603-18.95l-82.729 40.204a7.985 7.985 0 0 1-3.494.805zM222.45 40c-100.355 0-182 81.645-182 182 0 46.263 17.387 90.362 48.957 124.173a7.999 7.999 0 0 1 1.612 8.351l-24.582 63.44 67.913-33.004a8.003 8.003 0 0 1 7.064.035C166.728 397.605 193.993 404 222.45 404c100.355 0 182-81.645 182-182s-81.644-182-182-182z" fill="#ffffff" data-original="#000000" class=""></path><path d="M222.45 255.689c-18.576 0-33.689-15.113-33.689-33.689s15.113-33.689 33.689-33.689c18.577 0 33.689 15.113 33.689 33.689s-15.112 33.689-33.689 33.689zm0-51.378c-9.754 0-17.689 7.936-17.689 17.689s7.935 17.689 17.689 17.689 17.69-7.935 17.69-17.689-7.936-17.689-17.69-17.689zM120.994 255.689c-18.577 0-33.689-15.113-33.689-33.689s15.113-33.689 33.689-33.689 33.69 15.113 33.69 33.689-15.113 33.689-33.69 33.689zm0-51.378c-9.754 0-17.689 7.936-17.689 17.689s7.936 17.689 17.689 17.689c9.754 0 17.69-7.936 17.69-17.689s-7.935-17.689-17.69-17.689zM323.906 255.689c-18.576 0-33.689-15.113-33.689-33.689s15.113-33.689 33.689-33.689 33.689 15.113 33.689 33.689-15.113 33.689-33.689 33.689zm0-51.378c-9.754 0-17.689 7.936-17.689 17.689s7.936 17.689 17.689 17.689 17.689-7.936 17.689-17.689-7.935-17.689-17.689-17.689z" fill="#ffffff" data-original="#000000" class=""></path></g></svg>